<svg width="302" height="302" viewBox="0 0 302 302" fill="none" xmlns="http://www.w3.org/2000/svg">
<g clip-path="url(#clip0_11137_69505)">
<rect y="-0.439453" width="302" height="302" rx="4" fill="url(#paint0_linear_11137_69505)"/>
<path d="M248.915 66.3379H233.159C232.123 66.3379 231.283 67.1777 231.283 68.2137V69.3391C231.283 70.3751 232.123 71.2149 233.159 71.2149H248.915C249.951 71.2149 250.791 70.3751 250.791 69.3391V68.2137C250.791 67.1777 249.951 66.3379 248.915 66.3379Z" fill="url(#paint1_linear_11137_69505)"/>
<path d="M243.476 76.6538V60.8973C243.476 59.8613 242.636 59.0215 241.6 59.0215H240.475C239.439 59.0215 238.599 59.8613 238.599 60.8973V76.6538C238.599 77.6897 239.439 78.5296 240.475 78.5296H241.6C242.636 78.5296 243.476 77.6897 243.476 76.6538Z" fill="url(#paint2_linear_11137_69505)"/>
<path d="M45.9565 215.087C44.3242 215.087 42.7285 214.603 41.3712 213.696C40.0139 212.789 38.9561 211.5 38.3314 209.992C37.7067 208.484 37.5433 206.824 37.8617 205.223C38.1802 203.622 38.9662 202.152 40.1205 200.997C41.2748 199.843 42.7454 199.057 44.3464 198.739C45.9474 198.42 47.6069 198.584 49.115 199.208C50.6231 199.833 51.9121 200.891 52.819 202.248C53.7259 203.605 54.21 205.201 54.21 206.833C54.21 209.022 53.3404 211.122 51.7926 212.67C50.2448 214.217 48.1455 215.087 45.9565 215.087ZM45.9565 202.114C45.0231 202.114 44.1107 202.391 43.3346 202.909C42.5584 203.428 41.9535 204.165 41.5963 205.027C41.2391 205.89 41.1457 206.839 41.3278 207.754C41.5099 208.67 41.9594 209.511 42.6194 210.171C43.2794 210.831 44.1203 211.28 45.0358 211.462C45.9513 211.644 46.9002 211.551 47.7626 211.194C48.625 210.837 49.362 210.232 49.8806 209.455C50.3992 208.679 50.676 207.767 50.676 206.833C50.676 205.582 50.1788 204.381 49.2937 203.496C48.4086 202.611 47.2082 202.114 45.9565 202.114Z" fill="url(#paint3_linear_11137_69505)"/>
<g opacity="0.6">
<path d="M71.1669 170.067L65.9673 167.066L127.643 60.2969L162.202 121.132L156.98 124.096L127.598 72.3769L71.1669 170.067Z" fill="white"/>
<path d="M211.318 155.578L173.382 103.349L141.996 152.179L136.947 148.938L173.082 92.7246L216.172 152.052L211.318 155.578Z" fill="white"/>
<path d="M198.554 99.726C194.956 99.726 191.438 98.6589 188.446 96.6596C185.454 94.6603 183.122 91.8186 181.744 88.4939C180.367 85.1692 180.007 81.5108 180.709 77.9813C181.411 74.4518 183.144 71.2098 185.689 68.6651C188.233 66.1205 191.475 64.3876 195.005 63.6856C198.534 62.9835 202.193 63.3438 205.517 64.721C208.842 66.0981 211.684 68.4302 213.683 71.4224C215.682 74.4145 216.749 77.9323 216.749 81.531C216.743 86.3548 214.825 90.9793 211.414 94.3902C208.003 97.8012 203.378 99.72 198.554 99.726ZM198.554 69.3384C196.143 69.3384 193.786 70.0535 191.781 71.3932C189.776 72.733 188.213 74.6372 187.29 76.8651C186.367 79.093 186.126 81.5445 186.596 83.9096C187.067 86.2747 188.228 88.4472 189.933 90.1524C191.638 91.8576 193.811 93.0188 196.176 93.4892C198.541 93.9597 200.992 93.7182 203.22 92.7954C205.448 91.8726 207.352 90.3098 208.692 88.3048C210.032 86.2997 210.747 83.9424 210.747 81.531C210.743 78.2985 209.457 75.1996 207.171 72.9139C204.886 70.6282 201.787 69.3424 198.554 69.3384Z" fill="white"/>
<path d="M183.361 181.33H91.8228V187.333H183.361V181.33Z" fill="white"/>
<path d="M233.257 200.102H141.719V206.104H233.257V200.102Z" fill="white"/>
<path d="M176.608 221.088H85.0703V227.09H176.608V221.088Z" fill="white"/>
</g>
<path d="M169.503 118.574V103.98H116.816C116 103.979 115.191 104.138 114.436 104.449C113.682 104.761 112.996 105.218 112.419 105.796C111.841 106.373 111.384 107.059 111.072 107.813C110.761 108.568 110.602 109.377 110.604 110.193V190.926C110.602 191.743 110.761 192.552 111.072 193.306C111.384 194.061 111.841 194.747 112.419 195.324C112.996 195.901 113.682 196.359 114.436 196.67C115.191 196.982 116 197.141 116.816 197.139H185.184C186.001 197.141 186.81 196.982 187.564 196.67C188.319 196.359 189.004 195.901 189.582 195.324C190.159 194.747 190.617 194.061 190.928 193.306C191.24 192.552 191.399 191.743 191.397 190.926V125.875H176.803C175.844 125.876 174.895 125.687 174.008 125.321C173.122 124.954 172.317 124.417 171.639 123.738C170.961 123.06 170.423 122.255 170.057 121.369C169.69 120.483 169.502 119.533 169.503 118.574Z" fill="url(#paint4_linear_11137_69505)"/>
<path d="M167.275 149.007C170.275 149.007 172.707 146.575 172.707 143.575C172.707 140.575 170.275 138.143 167.275 138.143C164.274 138.143 161.842 140.575 161.842 143.575C161.842 146.575 164.274 149.007 167.275 149.007Z" fill="white"/>
<path d="M157.963 152.525L147.406 170.743C147.129 171.214 146.982 171.75 146.979 172.297C146.977 172.844 147.119 173.381 147.392 173.855C147.665 174.328 148.059 174.721 148.533 174.993C149.008 175.265 149.546 175.406 150.092 175.402H171.161C171.706 175.401 172.241 175.257 172.713 174.984C173.185 174.711 173.576 174.319 173.848 173.847C174.12 173.375 174.264 172.84 174.263 172.295C174.263 171.75 174.12 171.215 173.847 170.743L163.29 152.525C163.023 152.054 162.636 151.662 162.168 151.389C161.7 151.116 161.168 150.973 160.627 150.973C160.085 150.973 159.553 151.116 159.085 151.389C158.617 151.662 158.23 152.054 157.963 152.525Z" fill="white"/>
<path d="M144.195 168.883L152.839 153.877L147.999 145.541C147.727 145.069 147.334 144.677 146.862 144.404C146.39 144.132 145.854 143.988 145.309 143.988C144.764 143.988 144.229 144.132 143.756 144.404C143.284 144.677 142.892 145.069 142.619 145.541L128.048 170.819C127.771 171.29 127.624 171.826 127.621 172.373C127.619 172.92 127.761 173.457 128.034 173.931C128.307 174.405 128.701 174.797 129.175 175.069C129.65 175.341 130.188 175.482 130.735 175.478H144.038C143.539 174.449 143.292 173.316 143.32 172.173C143.347 171.03 143.647 169.909 144.195 168.906V168.883Z" fill="white"/>
<path d="M191.397 122.611L172.759 103.98V116.398C172.756 117.214 172.915 118.023 173.225 118.777C173.536 119.532 173.993 120.218 174.57 120.795C175.146 121.372 175.832 121.83 176.586 122.142C177.34 122.453 178.148 122.613 178.964 122.611H191.39H191.397Z" fill="url(#paint5_linear_11137_69505)"/>
</g>
<defs>
<linearGradient id="paint0_linear_11137_69505" x1="151" y1="301.561" x2="151" y2="-0.439453" gradientUnits="userSpaceOnUse">
<stop stop-color="#E9EDF3"/>
<stop offset="1" stop-color="#F6F8FA"/>
</linearGradient>
<linearGradient id="paint1_linear_11137_69505" x1="241.037" y1="71.2149" x2="241.037" y2="66.3379" gradientUnits="userSpaceOnUse">
<stop stop-color="#CFD4DE"/>
<stop offset="1" stop-color="#DADFE9"/>
</linearGradient>
<linearGradient id="paint2_linear_11137_69505" x1="241.038" y1="78.5296" x2="241.038" y2="59.0215" gradientUnits="userSpaceOnUse">
<stop stop-color="#CFD4DE"/>
<stop offset="1" stop-color="#DADFE9"/>
</linearGradient>
<linearGradient id="paint3_linear_11137_69505" x1="45.9565" y1="215.087" x2="45.9565" y2="198.58" gradientUnits="userSpaceOnUse">
<stop stop-color="#CFD4DE"/>
<stop offset="1" stop-color="#DADFE9"/>
</linearGradient>
<linearGradient id="paint4_linear_11137_69505" x1="151" y1="197.139" x2="151" y2="103.98" gradientUnits="userSpaceOnUse">
<stop stop-color="#CFD4DE"/>
<stop offset="1" stop-color="#DADFE9"/>
</linearGradient>
<linearGradient id="paint5_linear_11137_69505" x1="182.078" y1="122.611" x2="182.078" y2="103.98" gradientUnits="userSpaceOnUse">
<stop stop-color="#CFD4DE"/>
<stop offset="1" stop-color="#DADFE9"/>
</linearGradient>
<clipPath id="clip0_11137_69505">
<rect y="-0.439453" width="302" height="302" rx="4" fill="white"/>
</clipPath>
</defs>
</svg>
